<svg width="24" height="28" viewBox="0 0 24 28" fill="none" xmlns="http://www.w3.org/2000/svg">
<path fill-rule="evenodd" clip-rule="evenodd" d="M13.8286 21.6456C13.5366 21.6456 13.2466 21.5009 13.0486 21.2206L8.2206 14.3852C7.9226 13.9625 7.9266 13.3587 8.2316 12.9418L13.2316 6.10633C13.5846 5.62329 14.2156 5.55835 14.6406 5.96051C15.0646 6.36266 15.1216 7.08152 14.7676 7.56456L10.2926 13.6834L14.6076 19.792C14.9536 20.2819 14.8856 20.9996 14.4546 21.3938C14.2706 21.5636 14.0486 21.6456 13.8286 21.6456Z" fill="#231F20"/>
<mask id="mask0" mask-type="alpha" maskUnits="userSpaceOnUse" x="8" y="5" width="7" height="17">
<path fill-rule="evenodd" clip-rule="evenodd" d="M13.8286 21.6456C13.5366 21.6456 13.2466 21.5009 13.0486 21.2206L8.2206 14.3852C7.9226 13.9625 7.9266 13.3587 8.2316 12.9418L13.2316 6.10633C13.5846 5.62329 14.2156 5.55835 14.6406 5.96051C15.0646 6.36266 15.1216 7.08152 14.7676 7.56456L10.2926 13.6834L14.6076 19.792C14.9536 20.2819 14.8856 20.9996 14.4546 21.3938C14.2706 21.5636 14.0486 21.6456 13.8286 21.6456Z" fill="white"/>
</mask>
<g mask="url(#mask0)">
<rect width="24" height="27.3418" fill="white"/>
</g>
</svg>
