<svg width="64" height="64" viewBox="0 0 64 64" fill="none" xmlns="http://www.w3.org/2000/svg">
<g id="Icon/Outline/arrow-circle-right">
<path id="Mask" fill-rule="evenodd" clip-rule="evenodd" d="M45.3307 32.0143C45.3307 32.009 45.3334 32.0063 45.3334 32.001C45.3334 31.913 45.2907 31.841 45.2827 31.7556C45.2614 31.4996 45.2294 31.2436 45.1307 31.0036C45.0587 30.8223 44.936 30.6783 44.8267 30.5183C44.744 30.401 44.6987 30.265 44.5974 30.1583L36.9627 22.1583C35.944 21.0916 34.2587 21.0543 33.192 22.0703C32.128 23.0863 32.088 24.7743 33.104 25.841L36.4374 29.3343H21.3334C19.8614 29.3343 18.6667 30.5263 18.6667 32.001C18.6667 33.473 19.8614 34.6676 21.3334 34.6676H36.2294L32.7814 38.1156C31.7387 39.1556 31.7387 40.8436 32.7814 41.8863C33.3014 42.4063 33.984 42.6676 34.6667 42.6676C35.3494 42.6676 36.032 42.4063 36.552 41.8863L44.552 33.8863C44.7947 33.6436 44.992 33.3503 45.1254 33.0276C45.2614 32.705 45.328 32.361 45.3307 32.0143ZM32 53.3332C20.2374 53.3332 10.6667 43.7626 10.6667 31.9999C10.6667 20.2373 20.2374 10.6666 32 10.6666C43.7627 10.6666 53.3334 20.2373 53.3334 31.9999C53.3334 43.7626 43.7627 53.3332 32 53.3332ZM32 5.33325C17.296 5.33325 5.33337 17.2959 5.33337 31.9999C5.33337 46.7039 17.296 58.6666 32 58.6666C46.704 58.6666 58.6667 46.7039 58.6667 31.9999C58.6667 17.2959 46.704 5.33325 32 5.33325Z" fill="#231F20"/>
<mask id="mask0" mask-type="alpha" maskUnits="userSpaceOnUse" x="5" y="5" width="54" height="54">
<path id="Mask_2" fill-rule="evenodd" clip-rule="evenodd" d="M45.3307 32.0143C45.3307 32.009 45.3334 32.0063 45.3334 32.001C45.3334 31.913 45.2907 31.841 45.2827 31.7556C45.2614 31.4996 45.2294 31.2436 45.1307 31.0036C45.0587 30.8223 44.936 30.6783 44.8267 30.5183C44.744 30.401 44.6987 30.265 44.5974 30.1583L36.9627 22.1583C35.944 21.0916 34.2587 21.0543 33.192 22.0703C32.128 23.0863 32.088 24.7743 33.104 25.841L36.4374 29.3343H21.3334C19.8614 29.3343 18.6667 30.5263 18.6667 32.001C18.6667 33.473 19.8614 34.6676 21.3334 34.6676H36.2294L32.7814 38.1156C31.7387 39.1556 31.7387 40.8436 32.7814 41.8863C33.3014 42.4063 33.984 42.6676 34.6667 42.6676C35.3494 42.6676 36.032 42.4063 36.552 41.8863L44.552 33.8863C44.7947 33.6436 44.992 33.3503 45.1254 33.0276C45.2614 32.705 45.328 32.361 45.3307 32.0143ZM32 53.3332C20.2374 53.3332 10.6667 43.7626 10.6667 31.9999C10.6667 20.2373 20.2374 10.6666 32 10.6666C43.7627 10.6666 53.3334 20.2373 53.3334 31.9999C53.3334 43.7626 43.7627 53.3332 32 53.3332ZM32 5.33325C17.296 5.33325 5.33337 17.2959 5.33337 31.9999C5.33337 46.7039 17.296 58.6666 32 58.6666C46.704 58.6666 58.6667 46.7039 58.6667 31.9999C58.6667 17.2959 46.704 5.33325 32 5.33325Z" fill="white"/>
</mask>
<g mask="url(#mask0)">
<g id="&#240;&#159;&#142;&#168; Color">
<rect id="Base" width="64" height="64" fill="#004A90"/>
</g>
</g>
</g>
</svg>
