<svg width="24" height="28" viewBox="0 0 24 28" fill="none" xmlns="http://www.w3.org/2000/svg">
<path fill-rule="evenodd" clip-rule="evenodd" d="M10.1714 6.35441C10.4634 6.35441 10.7534 6.4991 10.9514 6.77935L15.7794 13.6148C16.0774 14.0375 16.0734 14.6413 15.7684 15.0582L10.7684 21.8937C10.4154 22.3767 9.7844 22.4416 9.3594 22.0395C8.9354 21.6373 8.8784 20.9185 9.2324 20.4354L13.7074 14.3166L9.3924 8.20796C9.0464 7.71809 9.1144 7.00036 9.5454 6.60619C9.7294 6.43644 9.9514 6.35441 10.1714 6.35441Z" fill="#231F20"/>
<mask id="mask0" mask-type="alpha" maskUnits="userSpaceOnUse" x="9" y="6" width="7" height="17">
<path fill-rule="evenodd" clip-rule="evenodd" d="M10.1714 6.35441C10.4634 6.35441 10.7534 6.4991 10.9514 6.77935L15.7794 13.6148C16.0774 14.0375 16.0734 14.6413 15.7684 15.0582L10.7684 21.8937C10.4154 22.3767 9.7844 22.4416 9.3594 22.0395C8.9354 21.6373 8.8784 20.9185 9.2324 20.4354L13.7074 14.3166L9.3924 8.20796C9.0464 7.71809 9.1144 7.00036 9.5454 6.60619C9.7294 6.43644 9.9514 6.35441 10.1714 6.35441Z" fill="white"/>
</mask>
<g mask="url(#mask0)">
<rect x="24" y="28" width="24" height="27.3418" transform="rotate(-180 24 28)" fill="white"/>
</g>
</svg>
