<svg width="48" height="48" viewBox="0 0 48 48" fill="none" xmlns="http://www.w3.org/2000/svg">
<g id="Icon/Outline/briefcase">
<path id="Mask" fill-rule="evenodd" clip-rule="evenodd" d="M40.0001 36C40.0001 37.102 39.1021 38 38.0001 38H34.0001V18H38.0001C39.1021 18 40.0001 18.898 40.0001 20V36ZM8.00023 36V20C8.00023 18.898 8.89823 18 10.0002 18H14.0002V38H10.0002C8.89823 38 8.00023 37.102 8.00023 36ZM20.0002 11C20.0002 10.448 20.4482 10 21.0002 10H27.0002C27.5522 10 28.0002 10.448 28.0002 11V14H20.0002V11ZM18 38H30V18H18V38ZM38.0001 14H32.0001V11C32.0001 8.244 29.7561 6 27.0001 6H21.0001C18.2441 6 16.0001 8.244 16.0001 11V14H10.0001C6.69212 14 4.00012 16.692 4.00012 20V36C4.00012 39.308 6.69212 42 10.0001 42H38.0001C41.3081 42 44.0001 39.308 44.0001 36V20C44.0001 16.692 41.3081 14 38.0001 14Z" fill="#231F20"/>
<mask id="mask0" mask-type="alpha" maskUnits="userSpaceOnUse" x="4" y="6" width="41" height="36">
<path id="Mask_2" fill-rule="evenodd" clip-rule="evenodd" d="M40.0001 36C40.0001 37.102 39.1021 38 38.0001 38H34.0001V18H38.0001C39.1021 18 40.0001 18.898 40.0001 20V36ZM8.00023 36V20C8.00023 18.898 8.89823 18 10.0002 18H14.0002V38H10.0002C8.89823 38 8.00023 37.102 8.00023 36ZM20.0002 11C20.0002 10.448 20.4482 10 21.0002 10H27.0002C27.5522 10 28.0002 10.448 28.0002 11V14H20.0002V11ZM18 38H30V18H18V38ZM38.0001 14H32.0001V11C32.0001 8.244 29.7561 6 27.0001 6H21.0001C18.2441 6 16.0001 8.244 16.0001 11V14H10.0001C6.69212 14 4.00012 16.692 4.00012 20V36C4.00012 39.308 6.69212 42 10.0001 42H38.0001C41.3081 42 44.0001 39.308 44.0001 36V20C44.0001 16.692 41.3081 14 38.0001 14Z" fill="white"/>
</mask>
<g mask="url(#mask0)">
<g id="&#240;&#159;&#142;&#168; Color">
<rect id="Base" width="48" height="48" fill="#FFB800"/>
</g>
</g>
</g>
</svg>
