<svg width="48" height="48" viewBox="0 0 48 48" fill="none" xmlns="http://www.w3.org/2000/svg">
<g id="Icon/Outline/calendar">
<path id="Mask" fill-rule="evenodd" clip-rule="evenodd" d="M14 32C14 30.9 14.9 30 16 30C17.1 30 18 30.9 18 32C18 33.1 17.1 34 16 34C14.9 34 14 33.1 14 32ZM24 30H32C33.1 30 34 30.9 34 32C34 33.1 33.1 34 32 34H24C22.9 34 22 33.1 22 32C22 30.9 22.9 30 24 30ZM36 40H12C10.898 40 10 39.102 10 38V26H38V38C38 39.102 37.102 40 36 40ZM12 12H14V14C14 15.1 14.9 16 16 16C17.1 16 18 15.1 18 14V12H30V14C30 15.1 30.9 16 32 16C33.1 16 34 15.1 34 14V12H36C37.102 12 38 12.898 38 14V22H10V14C10 12.898 10.898 12 12 12ZM36 8H34V6C34 4.9 33.1 4 32 4C30.9 4 30 4.9 30 6V8H18V6C18 4.9 17.1 4 16 4C14.9 4 14 4.9 14 6V8H12C8.692 8 6 10.692 6 14V38C6 41.308 8.692 44 12 44H36C39.308 44 42 41.308 42 38V14C42 10.692 39.308 8 36 8Z" fill="#231F20"/>
<mask id="mask0" mask-type="alpha" maskUnits="userSpaceOnUse" x="6" y="4" width="36" height="40">
<path id="Mask_2" fill-rule="evenodd" clip-rule="evenodd" d="M14 32C14 30.9 14.9 30 16 30C17.1 30 18 30.9 18 32C18 33.1 17.1 34 16 34C14.9 34 14 33.1 14 32ZM24 30H32C33.1 30 34 30.9 34 32C34 33.1 33.1 34 32 34H24C22.9 34 22 33.1 22 32C22 30.9 22.9 30 24 30ZM36 40H12C10.898 40 10 39.102 10 38V26H38V38C38 39.102 37.102 40 36 40ZM12 12H14V14C14 15.1 14.9 16 16 16C17.1 16 18 15.1 18 14V12H30V14C30 15.1 30.9 16 32 16C33.1 16 34 15.1 34 14V12H36C37.102 12 38 12.898 38 14V22H10V14C10 12.898 10.898 12 12 12ZM36 8H34V6C34 4.9 33.1 4 32 4C30.9 4 30 4.9 30 6V8H18V6C18 4.9 17.1 4 16 4C14.9 4 14 4.9 14 6V8H12C8.692 8 6 10.692 6 14V38C6 41.308 8.692 44 12 44H36C39.308 44 42 41.308 42 38V14C42 10.692 39.308 8 36 8Z" fill="white"/>
</mask>
<g mask="url(#mask0)">
<g id="&#240;&#159;&#142;&#168; Color">
<rect id="Base" width="48" height="48" fill="#FFB800"/>
</g>
</g>
</g>
</svg>
