<svg width="44" height="44" viewBox="0 0 44 44" fill="none" xmlns="http://www.w3.org/2000/svg">
<g clip-path="url(#clip0)">
<path d="M43.1469 21.9116H21.6765V43.0881H43.1469V21.9116Z" fill="#D43333"/>
<path d="M30.5001 34.1764C24.6471 38.5587 16.3529 37.3824 11.9706 31.5589L0.823524 16.7352L21.9705 0.823486L33.1176 15.647C37.5294 21.4705 36.3528 29.7647 30.5001 34.1764Z" fill="#004A90"/>
<path d="M14.4118 40.882C8.35296 36.7938 6.76472 28.5585 10.8824 22.4997L21.2646 7.14673L43.1765 21.9996L32.7942 37.3526C28.6764 43.3821 20.4413 44.9703 14.4118 40.882Z" fill="#4FA2F0"/>
<path d="M18.147 35.5881C15.1764 33.5882 14.4117 29.5586 16.4117 26.5881L27.1177 33.8529C25.147 36.8234 21.1177 37.588 18.147 35.5881Z" fill="white"/>
<path d="M20.0588 23.382C21.5293 23.382 22.7059 22.2056 22.7059 20.7349C22.7059 19.2643 21.5293 18.0879 20.0588 18.0879C18.5883 18.0879 17.4118 19.2643 17.4118 20.7349C17.4118 22.1761 18.5883 23.382 20.0588 23.382Z" fill="white"/>
<path d="M31.0295 30.7939C32.5 30.7939 33.6763 29.6176 33.6763 28.1468C33.6763 26.6763 32.5 25.4998 31.0295 25.4998C29.5587 25.4998 28.3824 26.6763 28.3824 28.1468C28.3824 29.5881 29.5587 30.7939 31.0295 30.7939Z" fill="white"/>
</g>
<defs>
<clipPath id="clip0">
<rect x="0.823524" y="0.823486" width="42.3529" height="42.3529" fill="white"/>
</clipPath>
</defs>
</svg>
