<svg width="48" height="48" viewBox="0 0 48 48" fill="none" xmlns="http://www.w3.org/2000/svg">
<path d="M27.0106 0V38.9843H48.0001V0H27.0106Z" fill="#4FA2F0"/>
<path d="M0 38.9843V47.9999H9.03136V38.9843H0Z" fill="#004A90"/>
<path d="M9.03133 29.9688V38.9844H18.0627V29.9688H9.03133Z" fill="#004A90"/>
<path d="M9.03133 12.0209V21.0365H18.0627V12.0209H9.03133Z" fill="#004A90"/>
<path d="M18.0629 21.0365V30.0522H27.0943V21.0365H18.0629Z" fill="#004A90"/>
<path d="M27.0106 29.9688V38.9844H36.042V29.9688H27.0106Z" fill="#004A90"/>
<path d="M9.03133 38.9843V47.9165H18.0627V38.9009H9.03133V38.9843Z" fill="#D43333"/>
<path d="M27.0106 38.9843V47.9165H36.042V38.9009H27.0106V38.9843Z" fill="#D43333"/>
<path d="M18.0629 29.9688V38.9844H27.0943V29.9688H18.0629Z" fill="#D43333"/>
<path d="M27.0106 11.9374V20.953H36.042V11.9374H27.0106Z" fill="#D43333"/>
</svg>
