<svg width="48" height="48" viewBox="0 0 48 48" fill="none" xmlns="http://www.w3.org/2000/svg">
<path d="M6.01043 24.0416H35.8957L47.9165 35.979H7.59652L0 41.9895C0 41.9895 0 33.3077 0 30.0521C0 26.7964 2.6713 24.0416 6.01043 24.0416Z" fill="#004A90"/>
<path d="M29.0503 8.51489C27.1303 8.51489 25.7112 10.1009 23.9581 10.1009C22.1216 10.1009 20.786 8.51489 18.866 8.51489C14.4416 8.51489 10.8521 12.1044 10.8521 18.4488C10.8521 24.7931 14.9425 31.4714 19.4503 31.4714C21.3703 31.4714 21.3703 30.3027 23.9581 30.3027C26.546 30.3027 26.546 31.4714 28.466 31.4714C32.8903 31.4714 37.0642 24.7931 37.0642 18.4488C37.0642 12.1044 33.4747 8.51489 29.0503 8.51489Z" fill="#D43333"/>
<path d="M33.3911 0.667816C33.3911 0.500859 33.3911 0.250435 33.3911 0C28.2154 0 23.958 4.25738 23.958 9.43303C23.958 9.59999 23.958 9.85041 23.958 10.1008C29.2171 10.1008 33.3911 5.84347 33.3911 0.667816Z" fill="#4FA2F0"/>
<path fill-rule="evenodd" clip-rule="evenodd" d="M48 35.9791H6.01043C2.6713 35.9791 0 38.6504 0 41.9896C0 45.3287 2.6713 48 6.01043 48H48V43.5757H6.09391C5.17565 43.5757 4.42435 42.9078 4.42435 41.9896C4.42435 41.0713 5.17565 40.4035 6.09391 40.4035H48V35.9791Z" fill="#4FA2F0"/>
</svg>
