<svg width="48" height="48" viewBox="0 0 48 48" fill="none" xmlns="http://www.w3.org/2000/svg">
<path fill-rule="evenodd" clip-rule="evenodd" d="M23.9583 9.1986V0H13.5235V13.4634H0V34.5366H13.44V48H23.9583V38.8014C15.7774 38.8014 9.18261 32.1951 9.18261 24C9.18261 15.8885 15.7774 9.1986 23.9583 9.1986Z" fill="#004A90"/>
<path fill-rule="evenodd" clip-rule="evenodd" d="M48 34.5366V13.4634H34.4765V0H23.9583V9.1986C32.1391 9.1986 38.7339 15.8049 38.7339 24C38.7339 32.1951 32.1391 38.8014 23.9583 38.8014V48H34.4765V34.5366H48Z" fill="#4FA2F0"/>
<path d="M28.3827 17.8954C27.1305 17.8954 26.1288 18.3972 25.294 19.1498L24.0418 20.4041L22.7897 19.0661C21.9549 18.3135 20.9531 17.8118 19.701 17.8118C17.2801 17.8118 15.2766 19.7351 15.2766 22.1602C15.2766 23.3309 15.7775 24.4181 16.5288 25.2543L24.0418 32.6968L31.5549 25.3379C32.3062 24.5017 32.807 23.4982 32.807 22.2438C32.807 19.8187 30.8036 17.8954 28.3827 17.8954Z" fill="#D43333"/>
</svg>
