<svg display="none" xmlns="http://www.w3.org/2000/svg" >
  <symbol id="arrow_right" viewBox="0 0 25 24">
      <path fill-rule="evenodd" clip-rule="evenodd" d="M5.40527 13H17.2703L13.6373 17.36C13.2833 17.784 13.3413 18.415 13.7653 18.768C14.1903 19.122 14.8203 19.064 15.1743 18.64L20.1743 12.64C20.2133 12.593 20.2323 12.538 20.2613 12.486C20.2853 12.444 20.3143 12.408 20.3323 12.362C20.3773 12.247 20.4043 12.126 20.4043 12.004C20.4043 12.003 20.4053 12.001 20.4053 12C20.4053 11.999 20.4043 11.997 20.4043 11.996C20.4043 11.874 20.3773 11.753 20.3323 11.638C20.3143 11.592 20.2853 11.556 20.2613 11.514C20.2323 11.462 20.2133 11.407 20.1743 11.36L15.1743 5.36C14.9753 5.123 14.6913 5 14.4053 5C14.1793 5 13.9523 5.076 13.7653 5.232C13.3413 5.585 13.2833 6.216 13.6373 6.64L17.2703 11H5.40527C4.85327 11 4.40527 11.448 4.40527 12C4.40527 12.552 4.85327 13 5.40527 13Z" />
  </symbol>
  <symbol id="arrow_up">
    <path d="M17.9993 14.9999C17.7733 14.9999 17.5463 14.9239 17.3593 14.7679L11.9883 10.2919L6.62626 14.6069C6.19726
    14.9539 5.56726 14.8859 5.22026 14.4549C4.87426 14.0249 4.94226 13.3959 5.37326 13.0489L11.3733 8.22092C11.7433
    7.92192 12.2743 7.92592 12.6403 8.23192L18.6403 13.2319C19.0643 13.5849 19.1213 14.2159 18.7683 14.6399C18.5703
    14.8769 18.2863 14.9999 17.9993 14.9999Z" />
  </symbol>
  <symbol id="Медицина" viewBox="0 0 48 48">
    <path fill-rule="evenodd" clip-rule="evenodd" d="M23.9583 9.1986V0H13.5235V13.4634H0V34.5366H13.44V48H23.9583V38.8014C15.7774 38.8014 9.18261 32.1951 9.18261 24C9.18261 15.8885 15.7774 9.1986 23.9583 9.1986Z" fill="#004A90"/>
    <path fill-rule="evenodd" clip-rule="evenodd" d="M48 34.5366V13.4634H34.4765V0H23.9583V9.1986C32.1391 9.1986 38.7339 15.8049 38.7339 24C38.7339 32.1951 32.1391 38.8014 23.9583 38.8014V48H34.4765V34.5366H48Z" fill="#4FA2F0"/>
    <path d="M28.3827 17.8954C27.1305 17.8954 26.1288 18.3972 25.294 19.1498L24.0418 20.4041L22.7897 19.0661C21.9549 18.3135 20.9531 17.8118 19.701 17.8118C17.2801 17.8118 15.2766 19.7351 15.2766 22.1602C15.2766 23.3309 15.7775 24.4181 16.5288 25.2543L24.0418 32.6968L31.5549 25.3379C32.3062 24.5017 32.807 23.4982 32.807 22.2438C32.807 19.8187 30.8036 17.8954 28.3827 17.8954Z" fill="#D43333"/>
  </symbol>
  <symbol id="eye" viewBox="0 0 24 24">
    <path fill-rule="evenodd" clip-rule="evenodd" d="M12 13.5C11.173 13.5 10.5 12.827 10.5 12C10.5 11.173 11.173 10.5 12 10.5C12.827 10.5 13.5 11.173 13.5 12C13.5 12.827 12.827 13.5 12 13.5ZM12 8.50002C10.0701 8.50002 8.50005 10.07 8.50005 12C8.50005 13.93 10.0701 15.5 12 15.5C13.93 15.5 15.5 13.93 15.5 12C15.5 10.07 13.93 8.50002 12 8.50002ZM12.2197 16.9976C7.91375 17.0976 5.10475 13.4146 4.17275 11.9956C5.19875 10.3906 7.78275 7.10462 11.7807 7.00262C16.0697 6.89362 18.8948 10.5856 19.8267 12.0046C18.8018 13.6096 16.2168 16.8956 12.2197 16.9976ZM21.8678 11.5026C21.2297 10.3906 17.7057 4.81662 11.7297 5.00362C6.20175 5.14362 2.98675 10.0136 2.13275 11.5026C1.95575 11.8106 1.95575 12.1896 2.13275 12.4976C2.76175 13.5946 6.16175 18.9996 12.0247 18.9996C12.1067 18.9996 12.1888 18.9986 12.2708 18.9966C17.7977 18.8556 21.0138 13.9866 21.8678 12.4976C22.0438 12.1896 22.0438 11.8106 21.8678 11.5026Z"/>
  </symbol>
  <symbol id="power" viewBox="0 0 20 20">
    <path fill-rule="evenodd" clip-rule="evenodd" d="M10.8333 10.0002C10.8333 10.461 10.4599 10.8335 9.99994 10.8335C9.53994 10.8335 9.1666 10.461 9.1666 10.0002V1.66683C9.1666 1.206 9.53994 0.833496 9.99994 0.833496C10.4599 0.833496 10.8333 1.206 10.8333 1.66683V10.0002ZM12.699 2.95126C12.9098 2.5421 13.4132 2.38293 13.8215 2.59293C16.604 4.0321 18.3332 6.8696 18.3332 10.0004C18.3332 14.5946 14.5948 18.3338 9.99984 18.3338C5.40484 18.3338 1.6665 14.5946 1.6665 10.0004C1.6665 6.8696 3.39567 4.0321 6.179 2.59293C6.5865 2.3821 7.08984 2.54126 7.3015 2.95126C7.51317 3.3596 7.35234 3.8621 6.944 4.07376C4.7165 5.2246 3.33317 7.49543 3.33317 10.0004C3.33317 13.6763 6.324 16.6671 9.99984 16.6671C13.6757 16.6671 16.6665 13.6763 16.6665 10.0004C16.6665 7.49543 15.2832 5.2246 13.0565 4.07376C12.6473 3.8621 12.4873 3.3596 12.699 2.95126Z"/>
  </symbol>
</svg>
