<svg display="none" xmlns="http://www.w3.org/2000/svg" >
  <symbol id="arrow_down" viewBox="0 0 24 24">
    <path d="M11.9999 16C11.7719 16 11.5449 15.923 11.3599 15.768L5.35991 10.768C4.93591 10.415 4.87791 9.78398 5.23191 9.35998C5.58491 8.93598 6.21491 8.87898 6.63991 9.23198L12.0109 13.708L17.3729 9.39298C17.8029 9.04698 18.4329 9.11498 18.7789 9.54498C19.1249 9.97498 19.0569 10.604 18.6269 10.951L12.6269 15.779C12.4439 15.926 12.2219 16 11.9999 16Z"/>
  </symbol>
  <symbol id="arrow_left" viewBox="0 0 24 24">
    <path d="M13.8287 19C13.5367 19 13.2467 18.873 13.0487 18.627L8.22066 12.627C7.92266 12.256 7.92666 11.726 8.23166 11.36L13.2317 5.35998C13.5847 4.93598 14.2157 4.87898 14.6407 5.23198C15.0647 5.58498 15.1217 6.21598 14.7677 6.63998L10.2927 12.011L14.6077 17.373C14.9537 17.803 14.8857 18.433 14.4547 18.779C14.2707 18.928 14.0487 19 13.8287 19Z"/>
  </symbol>
  <symbol id="arrow_right" viewBox="0 0 24 24">
    <path d="M10.1713 5.00002C10.4633 5.00002 10.7533 5.12702 10.9513 5.37302L15.7793 11.373C16.0773 11.744 16.0733 12.274 15.7683 12.64L10.7683 18.64C10.4153 19.064 9.78434 19.121 9.35934 18.768C8.93534 18.415 8.87834 17.784 9.23234 17.36L13.7073 11.989L9.39234 6.62702C9.04634 6.19702 9.11434 5.56702 9.54534 5.22102C9.72934 5.07202 9.95134 5.00002 10.1713 5.00002Z" />
  </symbol>
  <symbol id="arrow_right_full" viewBox="0 0 24 24">
      <path d="M5.40527 13H17.2703L13.6373 17.36C13.2833 17.784 13.3413 18.415 13.7653 18.768C14.1903 19.122 14.8203 19.064 15.1743 18.64L20.1743 12.64C20.2133 12.593 20.2323 12.538 20.2613 12.486C20.2853 12.444 20.3143 12.408 20.3323 12.362C20.3773 12.247 20.4043 12.126 20.4043 12.004C20.4043 12.003 20.4053 12.001 20.4053 12C20.4053 11.999 20.4043 11.997 20.4043 11.996C20.4043 11.874 20.3773 11.753 20.3323 11.638C20.3143 11.592 20.2853 11.556 20.2613 11.514C20.2323 11.462 20.2133 11.407 20.1743 11.36L15.1743 5.36C14.9753 5.123 14.6913 5 14.4053 5C14.1793 5 13.9523 5.076 13.7653 5.232C13.3413 5.585 13.2833 6.216 13.6373 6.64L17.2703 11H5.40527C4.85327 11 4.40527 11.448 4.40527 12C4.40527 12.552 4.85327 13 5.40527 13Z" />
  </symbol>
  <symbol id="arrow_up">
    <path d="M17.9993 14.9999C17.7733 14.9999 17.5463 14.9239 17.3593 14.7679L11.9883 10.2919L6.62626 14.6069C6.19726
    14.9539 5.56726 14.8859 5.22026 14.4549C4.87426 14.0249 4.94226 13.3959 5.37326 13.0489L11.3733 8.22092C11.7433
    7.92192 12.2743 7.92592 12.6403 8.23192L18.6403 13.2319C19.0643 13.5849 19.1213 14.2159 18.7683 14.6399C18.5703
    14.8769 18.2863 14.9999 17.9993 14.9999Z" />
  </symbol>
  <symbol id="check" viewBox="0 0 24 24">
    <path d="M9.86338 18.0001C9.58738 18.0001 9.32338 17.8861 9.13438 17.6851L4.27138 12.5061C3.89238 12.1041 3.91338 11.4711 4.31538 11.0931C4.71838 10.7151 5.35138 10.7351 5.72838 11.1371L9.85338 15.5281L18.2614 6.32611C18.6354 5.91711 19.2674 5.89011 19.6754 6.26211C20.0824 6.63411 20.1104 7.26711 19.7384 7.67411L10.6014 17.6741C10.4144 17.8801 10.1484 17.9981 9.87038 18.0001H9.86338Z"/>
  </symbol>
  <symbol id="check_square" viewBox="0 0 24 24">
    <path d="M19 12.8335C19 12.2815 19.448 11.8335 20 11.8335C20.552 11.8335 21 12.2815 21 12.8335V18.3995C21 19.8335 19.833 21.0005 18.4 21.0005H5.6C4.167 21.0005 3 19.8335 3 18.3995V5.60049C3 4.16649 4.167 3.00049 5.6 3.00049H15.167C15.719 3.00049 16.167 3.44749 16.167 4.00049C16.167 4.55249 15.719 5.00049 15.167 5.00049H5.6C5.269 5.00049 5 5.26949 5 5.60049V18.3995C5 18.7305 5.269 19.0005 5.6 19.0005H18.4C18.731 19.0005 19 18.7305 19 18.3995V12.8335ZM9.3096 10.9465C9.7096 10.5645 10.3416 10.5805 10.7236 10.9795L12.2286 12.5575L18.2816 6.30449C18.6646 5.90849 19.2976 5.89649 19.6956 6.28149C20.0926 6.66549 20.1026 7.29849 19.7186 7.69549L12.9416 14.6955C12.7536 14.8905 12.4946 15.0005 12.2236 15.0005H12.2196C11.9476 14.9995 11.6876 14.8875 11.4996 14.6905L9.2766 12.3605C8.8946 11.9605 8.9106 11.3275 9.3096 10.9465Z"/>
  </symbol>
  <symbol id="clock" viewBox="0 0 24 24">
    <path d="M16 11H13V8C13 7.447 12.552 7 12 7C11.448 7 11 7.447 11 8V12C11 12.553 11.448 13 12 13H16C16.553 13 17 12.553 17 12C17 11.447 16.553 11 16 11ZM12 20C7.589 20 4 16.411 4 12C4 7.589 7.589 4 12 4C16.411 4 20 7.589 20 12C20 16.411 16.411 20 12 20ZM12 2C6.486 2 2 6.486 2 12C2 17.514 6.486 22 12 22C17.514 22 22 17.514 22 12C22 6.486 17.514 2 12 2Z"/>
  </symbol>
  <symbol id="eye" viewBox="0 0 24 24">
    <path d="M12 13.5C11.173 13.5 10.5 12.827 10.5 12C10.5 11.173 11.173 10.5 12 10.5C12.827 10.5 13.5 11.173 13.5 12C13.5 12.827 12.827 13.5 12 13.5ZM12 8.50002C10.0701 8.50002 8.50005 10.07 8.50005 12C8.50005 13.93 10.0701 15.5 12 15.5C13.93 15.5 15.5 13.93 15.5 12C15.5 10.07 13.93 8.50002 12 8.50002ZM12.2197 16.9976C7.91375 17.0976 5.10475 13.4146 4.17275 11.9956C5.19875 10.3906 7.78275 7.10462 11.7807 7.00262C16.0697 6.89362 18.8948 10.5856 19.8267 12.0046C18.8018 13.6096 16.2168 16.8956 12.2197 16.9976ZM21.8678 11.5026C21.2297 10.3906 17.7057 4.81662 11.7297 5.00362C6.20175 5.14362 2.98675 10.0136 2.13275 11.5026C1.95575 11.8106 1.95575 12.1896 2.13275 12.4976C2.76175 13.5946 6.16175 18.9996 12.0247 18.9996C12.1067 18.9996 12.1888 18.9986 12.2708 18.9966C17.7977 18.8556 21.0138 13.9866 21.8678 12.4976C22.0438 12.1896 22.0438 11.8106 21.8678 11.5026Z"/>
  </symbol>
  <symbol id="eye_off" viewBox="0 0 24 24">
    <path d="M17.8089 13.395C19.5139 11.978 20.6989 9.95298 20.9919 7.62398C21.0609 7.07698 20.6729 6.57698 20.1239 6.50798C19.5839 6.43398 19.0759 6.82698 19.0079 7.37498C18.5689 10.867 15.5559 13.5 11.9999 13.5C8.44395 13.5 5.43095 10.867 4.99195 7.37498C4.92395 6.82698 4.41395 6.43798 3.87495 6.50798C3.32695 6.57698 2.93895 7.07698 3.00795 7.62398C3.30095 9.95298 4.48595 11.978 6.19095 13.395L3.87895 15.707C3.48995 16.096 3.48995 16.732 3.87895 17.121C4.26695 17.51 4.90395 17.51 5.29295 17.121L7.89595 14.518C8.84995 15 9.89695 15.318 10.9999 15.439V19C10.9999 19.55 11.4499 20 11.9999 20C12.5499 20 12.9999 19.55 12.9999 19V15.439C14.1019 15.318 15.1499 15 16.1029 14.518L18.7069 17.121C19.0959 17.51 19.7319 17.51 20.1209 17.121C20.5099 16.732 20.5099 16.096 20.1209 15.707L17.8089 13.395Z" />
  </symbol>
  <symbol id="hamburger" viewBox="0 0 32 32">
    <path d="M4,10h24c1.104,0,2-0.896,2-2s-0.896-2-2-2H4C2.896,6,2,6.896,2,8S2.896,10,4,10z M28,14H4c-1.104,0-2,0.896-2,2  s0.896,2,2,2h24c1.104,0,2-0.896,2-2S29.104,14,28,14z M28,22H4c-1.104,0-2,0.896-2,2s0.896,2,2,2h24c1.104,0,2-0.896,2-2  S29.104,22,28,22z"/>
  </symbol>
  <symbol id="location" viewBox="0 0 24 24">
    <path d="M7.86617 9.09861L13.0642 10.1556C13.4582 10.2346 13.7652 10.5416 13.8452 10.9356L14.9012 16.1336L18.4192 5.58061L7.86617 9.09861ZM14.6672 20.9996C14.6462 20.9996 14.6262 20.9986 14.6062 20.9976C14.1542 20.9706 13.7772 20.6426 13.6862 20.1996L12.0172 11.9826L3.80117 10.3126C3.35717 10.2226 3.02917 9.84561 3.00217 9.39361C2.97417 8.94161 3.25417 8.52761 3.68317 8.38461L19.6832 3.05161C20.0432 2.92961 20.4392 3.02461 20.7072 3.29261C20.9752 3.56061 21.0682 3.95661 20.9492 4.31661L15.6152 20.3166C15.4782 20.7266 15.0952 20.9996 14.6672 20.9996Z"/>
  </symbol>
  <symbol id="loupe">
    <path d="M5.64897 11C5.64897 7.691 8.31573 5 11.5949 5C14.8741 5 17.5409 7.691 17.5409 11C17.5409 14.309 14.8741 17 11.5949 17C8.31573 17 5.64897 14.309 5.64897 11ZM21.2145 19.293L17.8501 15.897C18.8936 14.543 19.5228 12.846 19.5228 11C19.5228 6.589 15.9662 3 11.5949 3C7.22366 3 3.66699 6.589 3.66699 11C3.66699 15.411 7.22366 19 11.5949 19C13.4243 19 15.106 18.365 16.4478 17.312L19.8132 20.707C20.0065 20.902 20.2601 21 20.5138 21C20.7675 21 21.0212 20.902 21.2145 20.707C21.6019 20.316 21.6019 19.684 21.2145 19.293Z" />
  </symbol>
  <symbol id="medicine" viewBox="0 0 48 48">
    <path d="M23.9583 9.1986V0H13.5235V13.4634H0V34.5366H13.44V48H23.9583V38.8014C15.7774 38.8014 9.18261 32.1951 9.18261 24C9.18261 15.8885 15.7774 9.1986 23.9583 9.1986Z" fill="#004A90"/>
    <path d="M48 34.5366V13.4634H34.4765V0H23.9583V9.1986C32.1391 9.1986 38.7339 15.8049 38.7339 24C38.7339 32.1951 32.1391 38.8014 23.9583 38.8014V48H34.4765V34.5366H48Z" fill="#4FA2F0"/>
    <path d="M28.3827 17.8954C27.1305 17.8954 26.1288 18.3972 25.294 19.1498L24.0418 20.4041L22.7897 19.0661C21.9549 18.3135 20.9531 17.8118 19.701 17.8118C17.2801 17.8118 15.2766 19.7351 15.2766 22.1602C15.2766 23.3309 15.7775 24.4181 16.5288 25.2543L24.0418 32.6968L31.5549 25.3379C32.3062 24.5017 32.807 23.4982 32.807 22.2438C32.807 19.8187 30.8036 17.8954 28.3827 17.8954Z" fill="#D43333"/>
  </symbol>
  <symbol id="power" viewBox="0 0 20 20">
    <path d="M10.8333 10.0002C10.8333 10.461 10.4599 10.8335 9.99994 10.8335C9.53994 10.8335 9.1666 10.461 9.1666 10.0002V1.66683C9.1666 1.206 9.53994 0.833496 9.99994 0.833496C10.4599 0.833496 10.8333 1.206 10.8333 1.66683V10.0002ZM12.699 2.95126C12.9098 2.5421 13.4132 2.38293 13.8215 2.59293C16.604 4.0321 18.3332 6.8696 18.3332 10.0004C18.3332 14.5946 14.5948 18.3338 9.99984 18.3338C5.40484 18.3338 1.6665 14.5946 1.6665 10.0004C1.6665 6.8696 3.39567 4.0321 6.179 2.59293C6.5865 2.3821 7.08984 2.54126 7.3015 2.95126C7.51317 3.3596 7.35234 3.8621 6.944 4.07376C4.7165 5.2246 3.33317 7.49543 3.33317 10.0004C3.33317 13.6763 6.324 16.6671 9.99984 16.6671C13.6757 16.6671 16.6665 13.6763 16.6665 10.0004C16.6665 7.49543 15.2832 5.2246 13.0565 4.07376C12.6473 3.8621 12.4873 3.3596 12.699 2.95126Z"/>
  </symbol>
  <symbol id="square" viewBox="0 0 24 24">
    <path d="M6 5C5.449 5 5 5.449 5 6V18C5 18.551 5.449 19 6 19H18C18.551 19 19 18.551 19 18V6C19 5.449 18.551 5 18 5H6ZM18 21H6C4.346 21 3 19.654 3 18V6C3 4.346 4.346 3 6 3H18C19.654 3 21 4.346 21 6V18C21 19.654 19.654 21 18 21Z" />
  </symbol>
</svg>
